<?xml version="1.0" encoding="UTF-8" standalone="no"?>
<svg
   xmlns:dc="http://purl.org/dc/elements/1.1/"
   xmlns:cc="http://creativecommons.org/ns#"
   xmlns:rdf="http://www.w3.org/1999/02/22-rdf-syntax-ns#"
   xmlns:svg="http://www.w3.org/2000/svg"
   xmlns="http://www.w3.org/2000/svg"
   xmlns:sodipodi="http://sodipodi.sourceforge.net/DTD/sodipodi-0.dtd"
   xmlns:inkscape="http://www.inkscape.org/namespaces/inkscape"
   width="350"
   height="333.04999"
   version="1.1"
   viewBox="0 0 328.12499 312.23336"
   xml:space="preserve"
   id="svg23"
   sodipodi:docname="logo.svg"
   inkscape:version="0.92.3 (2405546, 2018-03-11)"><sodipodi:namedview
     pagecolor="#ffffff"
     bordercolor="#666666"
     borderopacity="1"
     objecttolerance="10"
     gridtolerance="10"
     guidetolerance="10"
     inkscape:pageopacity="0"
     inkscape:pageshadow="2"
     inkscape:window-width="1920"
     inkscape:window-height="1018"
     id="namedview25"
     showgrid="false"
     inkscape:zoom="0.40254237"
     inkscape:cx="110.54737"
     inkscape:cy="166.52499"
     inkscape:window-x="-8"
     inkscape:window-y="-8"
     inkscape:window-maximized="1"
     inkscape:current-layer="g19" /><metadata
     id="metadata2"><rdf:RDF><cc:Work
         rdf:about=""><dc:format>image/svg+xml</dc:format><dc:type
           rdf:resource="http://purl.org/dc/dcmitype/StillImage" /><dc:title></dc:title></cc:Work></rdf:RDF></metadata><defs
     id="defs7"><clipPath
       id="a"><path
         d="M 0,595.276 H 841.89 V 0 H 0 Z"
         id="path4"
         inkscape:connector-curvature="0" /></clipPath></defs><g
     transform="matrix(1.25,0,0,-1.25,-131.75,559.11001)"
     id="g21"><g
       clip-path="url(#a)"
       id="g19"><path
         d="m 348.13,279.27 c 0,0 -0.36759,2.2553 -0.58249,2.235 l -40.924,-3.9485 c -3.2563,-0.31443 -5.7853,-2.9113 -6.0138,-6.1744 l -1.1243,-16.114 -31.66,-2.2587 -2.1535,14.604 c -0.47957,3.2484 -3.3162,5.6971 -6.5997,5.6971 h -43.193 c -3.2823,0 -6.119,-2.4487 -6.5986,-5.6971 l -2.1547,-14.604 -31.66,2.2587 -1.1243,16.114 c -0.22848,3.2642 -2.7575,5.8611 -6.0138,6.1756 l -40.944,3.9474 c -0.21151,0.0204 -0.36646,-2.2372 -0.57797,-2.2372 l -0.0554,-8.8562 34.676,-5.5919 1.1356,-16.258 c 0.2296,-3.2914 2.8853,-5.9527 6.1789,-6.1891 l 43.603,-3.1104 c 0.16514,-0.0113 0.32801,-0.0181 0.49088,-0.0181 3.2767,0 6.1088,2.4499 6.5884,5.6982 l 2.2157,15.027 h 31.675 l 2.2157,-15.027 c 0.47843,-3.2473 3.314,-5.6971 6.5952,-5.6971 0.16061,0 0.32122,0.006 0.47844,0.017 l 43.609,3.1104 c 3.2925,0.23639 5.9493,2.8978 6.1789,6.1891 l 1.1344,16.258 34.661,5.6168 z"
         id="path11"
         inkscape:connector-curvature="0"
         style="fill:#ffffff" /><path
         transform="matrix(0.75,0,0,-0.75,105.4,447.29)"
         d="m 141.91,8 c -15.358,3.4143 -30.551,8.1666 -44.795,15.336 0.32575,12.577 1.1388,24.628 2.7871,36.869 -5.5316,3.544 -11.345,6.5857 -16.512,10.734 -5.2496,4.0386 -10.612,7.9037 -15.365,12.627 -9.4963,-6.2811 -19.546,-12.184 -29.9,-17.395 -11.161,12.012 -21.598,24.977 -30.123,39.484 6.4138,10.376 13.11,20.101 20.34,29.33 h 0.20117 v 89.039 c 0.16287,0.001 0.32692,0.009 0.48828,0.0234 l 54.586,5.2617 c 2.8593,0.27598 5.0998,2.578 5.2988,5.4434 l 1.6836,24.096 47.615,3.3984 3.2793,-22.24 c 0.42526,-2.8834 2.8998,-5.0195 5.8164,-5.0195 h 57.59 c 2.9151,0 5.3892,2.1361 5.8144,5.0195 l 3.2793,22.24 47.617,-3.3984 1.6816,-24.096 c 0.20057,-2.8653 2.4395,-5.1659 5.2988,-5.4434 l 54.564,-5.2617 c 0.16136,-0.0151 0.32346,-0.0218 0.48632,-0.0234 v -7.1055 l 0.0234,-0.008 v -81.926 h 0.20117 c 7.2312,-9.2294 13.923,-18.955 20.34,-29.33 -8.5221,-14.508 -18.964,-27.473 -30.125,-39.484 -10.351,5.2104 -20.406,11.113 -29.902,17.395 -4.7519,-4.7233 -10.104,-8.5883 -15.361,-12.627 -5.1652,-4.1487 -10.987,-7.1904 -16.508,-10.734 1.6438,-12.241 2.4579,-24.292 2.7852,-36.869 -14.245,-7.1694 -29.437,-11.922 -44.803,-15.336 -6.1348,10.311 -11.745,21.475 -16.631,32.391 -5.794,-0.96819 -11.615,-1.3271 -17.443,-1.3965 v -0.0078 c -0.0407,0 -0.0786,0.0078 -0.11328,0.0078 -0.0361,0 -0.0751,-0.0078 -0.11133,-0.0078 v 0.0078 c -5.8393,0.06933 -11.656,0.4283 -17.451,1.3965 -4.8831,-10.915 -10.489,-22.08 -16.633,-32.391 z M 28.45,235.8 c 0.02267,5.2752 0.08984,11.054 0.08984,12.205 0,51.838 65.76,76.754 147.46,77.041 h 0.20117 c 81.701,-0.28654 147.44,-25.203 147.44,-77.041 0,-1.1718 0.0716,-6.9268 0.0957,-12.205 l -49.064,4.7324 -1.6914,24.225 c -0.20359,2.9196 -2.5257,5.2435 -5.4453,5.4531 l -58.145,4.1484 c -0.14176,0.0107 -0.28357,0.0156 -0.42382,0.0156 -2.8895,0 -5.3818,-2.1219 -5.8086,-5.0234 l -3.334,-22.611 h -47.443 l -3.334,22.611 c -0.4479,3.0433 -3.168,5.2325 -6.2324,5.0078 l -58.145,-4.1484 c -2.9196,-0.20961 -5.2417,-2.5335 -5.4453,-5.4531 l -1.6895,-24.225 -49.084,-4.7324 z"
         id="path13"
         inkscape:connector-curvature="0"
         style="fill:#478cbf" /><path
         transform="matrix(0.75,0,0,-0.75,105.4,447.29)"
         d="m 98.723,138.25 c -18.16,0 -32.891,14.716 -32.891,32.879 0,18.175 14.73,32.898 32.891,32.898 18.169,0 32.896,-14.723 32.896,-32.898 0,-18.163 -14.727,-32.879 -32.896,-32.879 z m 154.76,0 c -18.172,0 -32.898,14.716 -32.898,32.879 0,18.175 14.726,32.898 32.898,32.898 18.159,0 32.887,-14.723 32.887,-32.898 0,-18.163 -14.728,-32.879 -32.887,-32.879 z m -77.387,19.24 c -5.8483,0 -10.588,4.3146 -10.588,9.623 v 30.283 c 0,5.3129 4.7396,9.623 10.588,9.623 5.8484,0 10.6,-4.3101 10.6,-9.623 v -30.283 c 0,-5.3084 -4.7513,-9.623 -10.6,-9.623 z"
         id="path15"
         inkscape:connector-curvature="0"
         style="fill:#ffffff" /><path
         transform="matrix(0.75,0,0,-0.75,105.4,447.29)"
         d="m 101.87,151.25 c -12.059,0 -21.834,9.7804 -21.834,21.836 0,12.0556 9.7754,21.826 21.834,21.826 12.065,0 21.836,-9.7706 21.836,-21.826 0,-12.0554 -9.7714,-21.836 -21.836,-21.836 z m 148.46,0 c -12.056,0 -21.824,9.7804 -21.824,21.836 0,12.0556 9.7687,21.826 21.824,21.826 12.068,0 21.834,-9.7706 21.834,-21.826 0,-12.0554 -9.7664,-21.836 -21.834,-21.836 z"
         id="path17"
         inkscape:connector-curvature="0"
         style="fill:#414042" /></g></g></svg>